<?xml version="1.0" standalone="no"?>
<!DOCTYPE svg PUBLIC "-//W3C//DTD SVG 20010904//EN"
 "http://www.w3.org/TR/2001/REC-SVG-20010904/DTD/svg10.dtd">
<svg version="1.0" xmlns="http://www.w3.org/2000/svg"
 width="1024.000000pt" height="768.000000pt" viewBox="0 0 1024.000000 768.000000"
 preserveAspectRatio="xMidYMid meet">

<g transform="translate(0.000000,768.000000) scale(0.100000,-0.100000)"
fill="#000000" stroke="none">
<path d="M5770 5480 c-8 -5 -35 -10 -60 -11 -26 -1 -35 -4 -21 -6 33 -6 111 6
111 18 0 12 -11 11 -30 -1z"/>
<path d="M5815 5481 c3 -6 10 -9 15 -6 5 3 11 -3 14 -12 4 -14 4 -14 3 2 -1
11 -11 21 -21 23 -11 3 -16 0 -11 -7z"/>
<path d="M6440 5470 c19 -5 39 -6 44 -3 5 4 6 1 2 -5 -9 -16 -33 -15 389 -12
204 1 368 0 365 -3 -3 -2 -198 -8 -435 -11 -409 -7 -511 -14 -400 -27 l50 -6
-48 -1 c-34 -2 -49 2 -53 13 -4 8 -10 15 -16 15 -5 0 -6 -4 -3 -10 3 -5 0 -7
-8 -4 -10 4 -20 -18 -37 -83 -23 -90 -32 -119 -220 -693 -60 -184 -149 -460
-197 -613 -48 -153 -89 -274 -91 -268 -2 5 19 79 47 163 27 84 71 221 96 303
25 83 60 195 77 250 17 55 39 127 49 159 11 33 19 65 19 72 0 6 7 25 15 40 8
16 15 45 14 64 0 26 -11 2 -40 -90 -82 -259 -149 -470 -194 -615 -59 -188
-125 -394 -135 -420 -4 -11 -15 -45 -25 -75 -71 -218 -179 -308 -384 -318 -92
-4 -94 -4 -88 17 3 11 1 21 -5 21 -5 0 -2 8 8 17 11 11 13 18 5 21 -6 2 -11
10 -11 18 0 9 4 13 9 9 12 -7 17 2 25 45 l6 35 -15 -35 -15 -35 6 35 c3 19 9
46 14 60 5 14 11 38 15 54 5 23 8 27 16 15 7 -12 9 -11 9 3 0 9 3 24 6 32 5
12 2 15 -10 10 -29 -11 -7 28 42 74 25 23 49 42 53 42 4 0 15 8 25 18 9 9 31
27 48 40 16 12 25 22 20 22 -6 0 -16 -6 -24 -12 -12 -11 -12 -10 -1 5 7 9 20
17 28 17 8 0 11 4 8 10 -4 6 1 7 11 3 12 -4 15 -3 10 5 -4 7 -2 12 4 12 6 0 8
4 5 10 -7 12 60 76 127 122 48 33 58 56 22 50 -10 -2 -23 -10 -29 -17 -23 -32
-68 -35 -458 -34 -423 2 -413 12 23 24 135 3 288 10 340 14 l95 7 -107 2 c-64
1 -108 6 -108 12 0 6 -7 10 -15 10 -8 0 -15 6 -15 13 0 23 61 234 94 327 9 25
16 55 16 67 0 12 3 23 8 25 4 2 15 33 25 70 9 37 20 74 24 84 4 11 3 15 -4 11
-7 -5 -9 0 -6 14 3 11 9 16 12 10 4 -5 15 20 25 57 10 37 28 96 39 132 12 36
20 70 19 77 -1 6 2 14 7 18 6 3 7 13 4 22 -5 12 -3 14 7 8 10 -6 12 -4 7 8 -3
9 -2 19 3 22 6 4 10 19 10 35 0 16 5 32 10 35 6 3 10 14 10 24 0 10 7 31 14
47 8 15 13 31 10 36 -3 4 0 8 6 8 6 0 9 4 5 10 -3 5 -3 21 1 35 5 20 9 23 15
13 6 -8 9 0 9 24 0 20 5 40 10 43 6 3 10 14 10 23 0 14 -2 14 -9 3 -7 -11 -10
-10 -13 5 -5 19 -15 -8 -39 -105 -5 -23 -12 -41 -15 -38 -6 6 36 166 53 200
l14 29 -472 -7 -473 -6 -37 -57 c-20 -31 -48 -76 -63 -100 -15 -23 -31 -40
-36 -37 -5 3 -7 0 -5 -7 6 -14 -18 -51 -302 -480 -89 -136 -163 -250 -163
-253 0 -3 -31 -51 -68 -108 -38 -56 -100 -149 -137 -207 -38 -58 -116 -177
-173 -265 -58 -88 -121 -185 -140 -215 -155 -242 -286 -430 -292 -421 -4 7 -7
-1 -7 -16 0 -26 -41 -104 -85 -162 -22 -29 -24 -14 -2 17 9 13 14 25 12 27 -2
2 -16 -16 -31 -41 -15 -25 -22 -42 -15 -39 7 4 1 -3 -13 -16 -31 -29 -99 -116
-81 -106 25 16 11 -6 -31 -46 -24 -23 -52 -54 -61 -69 -20 -30 -21 -29 39 -44
l30 -8 -28 -4 c-23 -3 -26 -6 -16 -18 8 -10 37 -14 108 -15 66 0 89 -3 74 -9
-12 -5 -62 -8 -112 -8 -50 1 -94 -1 -97 -5 -9 -8 27 -11 124 -7 47 1 72 -2 72
-9 0 -6 4 -11 10 -11 5 0 9 6 7 13 -1 9 20 12 80 12 44 0 79 3 76 8 -2 4 6 7
19 8 13 0 43 2 67 4 25 2 39 0 31 -5 -8 -5 3 -9 29 -12 23 -2 46 1 52 7 5 5
24 15 42 22 l32 11 -34 1 c-19 1 -32 3 -30 5 4 5 50 13 76 15 7 1 12 4 11 9
-1 4 1 22 5 39 4 23 11 31 21 27 8 -3 19 3 26 15 6 12 7 20 3 19 -9 -3 -13 5
-13 24 0 9 3 9 12 0 9 -9 16 -5 30 18 24 41 23 53 -2 15 -22 -34 -25 -30 -8
12 6 15 11 31 10 35 -1 5 1 7 6 7 18 -3 32 2 32 12 0 5 -4 7 -10 4 -5 -3 -10
-1 -10 4 0 6 4 11 8 11 5 0 14 11 20 24 6 14 43 74 83 134 40 61 71 113 70
116 -1 4 15 20 34 37 27 24 34 37 30 53 -5 17 -4 18 4 6 6 -8 11 -10 11 -4 0
7 12 19 26 29 30 19 25 7 -15 -38 -31 -35 -75 -107 -64 -107 4 1 29 31 55 68
92 129 118 151 193 158 110 11 282 14 294 6 11 -8 5 -38 -37 -168 -73 -230
-151 -507 -152 -540 0 -7 8 -14 18 -18 9 -3 24 -10 32 -15 28 -18 88 -41 107
-41 12 -1 9 -5 -12 -15 -16 -7 -25 -14 -20 -14 6 -1 3 -6 -5 -11 -12 -8 -9
-10 13 -10 18 0 26 4 21 11 -4 8 5 9 32 5 22 -3 71 -8 109 -12 39 -4 74 -9 80
-12 5 -4 64 -8 130 -9 100 -3 122 -6 133 -21 12 -16 14 -16 28 3 17 22 43 24
204 13 236 -17 353 -20 373 -10 12 5 56 17 97 26 99 22 152 41 143 51 -5 4 -3
5 4 2 16 -10 43 2 43 18 0 7 -6 16 -12 19 -7 3 -2 3 11 0 15 -4 21 -2 17 4 -3
6 8 15 26 21 42 15 50 12 13 -4 l-30 -14 28 -1 c26 0 87 33 95 52 2 4 11 8 19
8 9 0 13 6 10 14 -4 10 4 17 25 21 20 5 26 10 18 15 -9 6 -7 11 8 19 15 8 22
8 26 -2 3 -6 4 -3 3 8 -1 12 8 24 26 33 15 7 27 17 27 23 0 5 5 9 10 9 14 0
115 103 112 113 -4 12 31 44 56 51 12 4 22 11 22 16 0 4 16 32 37 61 20 29 51
85 69 124 37 79 88 225 81 231 -2 3 -17 -30 -32 -73 -29 -82 -84 -204 -95
-213 -4 -3 -17 -25 -29 -50 -26 -53 -60 -100 -61 -83 0 6 6 18 13 25 14 15 55
88 98 174 37 76 101 251 181 494 52 162 78 235 108 315 13 34 58 169 64 190 3
11 3 4 1 -15 -2 -19 -7 -46 -11 -60 -4 -14 -4 -22 0 -18 4 3 49 129 100 280
51 150 100 290 109 311 9 21 14 44 11 52 -4 8 -2 15 4 15 11 0 35 60 28 68 -3
2 -8 -8 -12 -22 -3 -15 -9 -25 -11 -22 -3 3 3 29 13 58 14 44 18 49 26 33 7
-16 7 -15 3 6 -3 15 2 46 10 70 9 23 13 52 9 63 -4 16 -3 18 5 7 8 -12 11 -9
17 15 4 16 11 35 16 41 6 7 7 25 3 40 l-7 28 21 -24 c12 -13 21 -20 21 -14 0
5 -3 13 -7 16 -11 11 -12 57 -2 54 6 -1 17 18 25 43 9 25 25 53 36 63 20 17
20 17 -13 18 -27 0 -30 2 -14 8 16 7 14 9 -14 14 -45 9 -72 7 -41 -3 17 -6 4
-8 -45 -8 -60 1 -64 2 -30 8 36 7 35 7 -10 4 -103 -8 -322 -12 -250 -5 44 5
-33 8 -210 8 -165 1 -266 -2 -245 -7z m297 -6 c-3 -3 -12 -4 -19 -1 -8 3 -5 6
6 6 11 1 17 -2 13 -5z m71 -1 c-10 -2 -26 -2 -35 0 -10 3 -2 5 17 5 19 0 27
-2 18 -5z m-1120 -50 c-16 -2 -40 -2 -55 0 -16 2 -3 4 27 4 30 0 43 -2 28 -4z
m1454 0 c-51 -2 -132 -2 -180 0 -48 1 -6 3 93 3 99 0 138 -2 87 -3z m-544 -10
c-15 -2 -42 -2 -60 0 -18 2 -6 4 27 4 33 0 48 -2 33 -4z m170 0 c-10 -2 -28
-2 -40 0 -13 2 -5 4 17 4 22 1 32 -1 23 -4z m-1072 -265 c-8 -23 -15 -36 -16
-27 0 21 21 81 27 75 2 -2 -2 -24 -11 -48z m-36 -105 c-11 -17 -11 -17 -6 0 3
10 6 24 7 30 0 9 2 9 5 0 3 -7 0 -20 -6 -30z m-20 -80 c-11 -17 -11 -17 -6 0
3 10 6 24 7 30 0 9 2 9 5 0 3 -7 0 -20 -6 -30z m1456 -50 c-18 -33 -21 -26 -6
13 6 15 13 24 16 21 3 -3 -1 -18 -10 -34z m-2069 -95 c-3 -8 -6 -5 -6 6 -1 11
2 17 5 13 3 -3 4 -12 1 -19z m-34 -111 c-9 -32 -18 -56 -20 -53 -2 2 3 29 12
61 9 31 19 55 21 53 2 -3 -4 -30 -13 -61z m2054 31 c-3 -8 -6 -5 -6 6 -1 11 2
17 5 13 3 -3 4 -12 1 -19z m-22 -45 c-5 -15 -9 -31 -10 -35 -2 -5 -3 -16 -5
-25 -1 -12 -3 -14 -7 -5 -5 14 18 104 25 97 3 -2 1 -17 -3 -32z m-2089 -55
c-9 -24 -42 -138 -75 -254 -33 -116 -64 -222 -69 -235 -6 -13 -18 -50 -28 -82
-15 -48 -16 -60 -5 -66 24 -15 -3 -18 -159 -19 -134 -1 -150 1 -118 11 40 13
97 71 98 100 0 9 4 17 10 17 10 0 33 39 45 79 6 18 4 22 -6 15 -11 -6 -11 -4
0 10 10 11 16 13 21 6 4 -7 14 4 25 27 10 21 20 43 23 48 3 6 -3 3 -13 -5 -17
-14 -18 -14 -6 8 7 12 16 20 21 17 5 -3 32 34 61 82 62 103 140 226 148 233 4
3 12 18 19 34 19 43 25 25 8 -26z m18 -62 c-10 -31 -19 -54 -22 -52 -2 2 4 29
14 60 10 31 19 54 22 52 2 -2 -4 -29 -14 -60z m2028 2 c-6 -6 -7 0 -4 19 5 21
7 23 10 9 2 -10 0 -22 -6 -28z m-22 -65 c-11 -17 -11 -17 -6 0 3 10 6 24 7 30
0 9 2 9 5 0 3 -7 0 -20 -6 -30z m-20 -60 c-11 -17 -11 -17 -6 0 3 10 6 24 7
30 0 9 2 9 5 0 3 -7 0 -20 -6 -30z m-13 -45 c-3 -8 -6 -5 -6 6 -1 11 2 17 5
13 3 -3 4 -12 1 -19z m-1466 -45 c-12 -20 -14 -14 -5 12 4 9 9 14 11 11 3 -2
0 -13 -6 -23z m-867 -88 c-9 -14 -18 -25 -21 -25 -5 0 5 18 20 38 17 22 18 13
1 -13z m-34 -55 c-6 -11 -13 -20 -16 -20 -2 0 0 9 6 20 6 11 13 20 16 20 2 0
0 -9 -6 -20z m264 -74 c-3 -15 -8 -25 -11 -23 -2 3 -1 17 3 31 3 15 8 25 11
23 2 -3 1 -17 -3 -31z m-329 -36 c-9 -16 -18 -30 -21 -30 -2 0 2 14 11 30 9
17 18 30 21 30 2 0 -2 -13 -11 -30z m305 -37 c-11 -17 -11 -17 -6 0 3 10 6 24
7 30 0 9 2 9 5 0 3 -7 0 -20 -6 -30z m173 -30 c-7 -2 -19 -2 -25 0 -7 3 -2 5
12 5 14 0 19 -2 13 -5z m782 -390 c-32 -103 -73 -195 -107 -240 -59 -78 -160
-129 -272 -139 -33 -3 -64 -8 -68 -10 -8 -5 -219 -5 -273 0 -16 2 -46 4 -65 5
-25 1 -31 4 -21 10 9 6 94 7 199 4 129 -4 202 -2 241 7 199 44 277 124 356
372 16 49 30 86 33 84 2 -3 -8 -44 -23 -93z m-1106 -87 c-11 -9 -190 -15 -184
-6 3 6 47 10 97 10 50 0 89 -2 87 -4z m-281 -13 c-21 -2 -57 -2 -80 0 -24 2
-7 4 37 4 44 0 63 -2 43 -4z m269 -125 c-3 -8 -6 -5 -6 6 -1 11 2 17 5 13 3
-3 4 -12 1 -19z m-40 -130 c-3 -8 -6 -5 -6 6 -1 11 2 17 5 13 3 -3 4 -12 1
-19z m-20 -70 c-3 -8 -6 -5 -6 6 -1 11 2 17 5 13 3 -3 4 -12 1 -19z m467 14
c3 -5 -8 -6 -25 -4 -16 2 -29 6 -29 8 0 8 49 4 54 -4z m80 -10 c2 -4 -8 -9
-24 -10 -16 -1 -31 2 -35 8 -4 6 6 10 24 10 16 0 32 -4 35 -8z m1310 -24 c-14
-24 -95 -128 -100 -128 -2 0 19 32 48 70 48 64 70 89 52 58z m-1869 -28 c-4
-12 -9 -19 -12 -17 -3 3 -2 15 2 27 4 12 9 19 12 17 3 -3 2 -15 -2 -27z m322
-22 c-3 -8 -6 -5 -6 6 -1 11 2 17 5 13 3 -3 4 -12 1 -19z m-1534 -63 c-3 -9
-8 -14 -10 -11 -3 3 -2 9 2 15 9 16 15 13 8 -4z m1164 -67 c-3 -8 -6 -5 -6 6
-1 11 2 17 5 13 3 -3 4 -12 1 -19z m1668 -84 c-107 -76 -315 -174 -370 -173
-11 0 16 12 60 27 97 34 211 90 285 142 30 21 59 38 65 39 5 1 -13 -15 -40
-35z m-1688 -6 c-3 -7 -5 -2 -5 12 0 14 2 19 5 13 2 -7 2 -19 0 -25z m-16 -59
c-9 -22 -10 -22 -10 -3 -1 11 2 24 6 27 12 12 14 0 4 -24z m1594 -67 c-3 -3
-11 0 -18 7 -9 10 -8 11 6 5 10 -3 15 -9 12 -12z m-1547 -29 c-10 -2 -26 -2
-35 0 -10 3 -2 5 17 5 19 0 27 -2 18 -5z m75 0 c-7 -2 -19 -2 -25 0 -7 3 -2 5
12 5 14 0 19 -2 13 -5z m-1015 -10 c-10 -2 -26 -2 -35 0 -10 3 -2 5 17 5 19 0
27 -2 18 -5z m1099 1 c-3 -3 -12 -4 -19 -1 -8 3 -5 6 6 6 11 1 17 -2 13 -5z
m643 -16 c10 -6 -1 -6 -30 -2 -66 10 -96 25 -35 18 28 -4 57 -11 65 -16z
m-417 5 c3 -5 -16 -7 -41 -5 -73 5 -82 10 -20 11 31 0 59 -2 61 -6z m862 -3
c-27 -12 -43 -12 -25 0 8 5 22 9 30 9 10 0 8 -3 -5 -9z m-2128 -16 c-3 -3 -12
-4 -19 -1 -8 3 -5 6 6 6 11 1 17 -2 13 -5z m1919 -49 c-8 -8 -20 -15 -27 -15
-9 0 -8 4 1 15 7 8 19 15 27 15 12 0 12 -2 -1 -15z m157 -12 c-7 -2 -21 -2
-30 0 -10 3 -4 5 12 5 17 0 24 -2 18 -5z"/>
<path d="M5448 5453 c6 -2 18 -2 25 0 6 3 1 5 -13 5 -14 0 -19 -2 -12 -5z"/>
<path d="M4968 5443 c7 -3 16 -2 19 1 4 3 -2 6 -13 5 -11 0 -14 -3 -6 -6z"/>
<path d="M4770 5429 c0 -5 5 -7 10 -4 6 3 10 8 10 11 0 2 -4 4 -10 4 -5 0 -10
-5 -10 -11z"/>
<path d="M5791 5414 c0 -11 3 -14 6 -6 3 7 2 16 -1 19 -3 4 -6 -2 -5 -13z"/>
<path d="M7301 5399 c-7 -12 -10 -23 -8 -26 3 -3 11 5 17 17 15 28 8 35 -9 9z"/>
<path d="M7267 5313 c-4 -3 -7 -13 -7 -22 1 -13 3 -13 11 2 11 19 8 33 -4 20z"/>
<path d="M6221 5294 c0 -11 3 -14 6 -6 3 7 2 16 -1 19 -3 4 -6 -2 -5 -13z"/>
<path d="M7237 5233 c-4 -3 -7 -13 -7 -22 1 -13 3 -13 11 2 11 19 8 33 -4 20z"/>
<path d="M7211 5154 c0 -11 3 -14 6 -6 3 7 2 16 -1 19 -3 4 -6 -2 -5 -13z"/>
<path d="M6146 4994 c-4 -14 -5 -28 -3 -31 3 -2 8 8 11 23 4 14 5 28 3 31 -3
2 -8 -8 -11 -23z"/>
<path d="M6117 4905 c-9 -25 -13 -53 -10 -62 4 -11 11 4 20 42 16 71 11 82
-10 20z"/>
<path d="M4276 4642 c-3 -5 1 -9 9 -9 8 0 12 4 9 9 -3 4 -7 8 -9 8 -2 0 -6 -4
-9 -8z"/>
<path d="M6866 4194 c-9 -26 -14 -50 -11 -52 2 -3 7 4 11 14 3 10 11 32 16 47
6 15 8 30 5 33 -2 3 -12 -16 -21 -42z"/>
<path d="M5846 4174 c-4 -14 -5 -28 -3 -31 3 -2 8 8 11 23 4 14 5 28 3 31 -3
2 -8 -8 -11 -23z"/>
<path d="M6827 4079 c-9 -29 -15 -54 -13 -56 6 -6 38 87 34 98 -2 6 -11 -13
-21 -42z"/>
<path d="M5811 4059 c-7 -22 -11 -43 -8 -45 2 -2 9 14 16 37 7 22 11 43 8 45
-2 2 -9 -14 -16 -37z"/>
<path d="M3905 4064 c-9 -14 -15 -27 -13 -30 2 -2 12 10 22 26 21 37 15 40 -9
4z"/>
<path d="M3797 3898 c-41 -62 -80 -124 -86 -138 l-12 -25 21 25 c11 14 30 41
41 60 11 19 32 54 47 77 51 80 71 113 67 113 -3 0 -38 -51 -78 -112z"/>
<path d="M6795 3990 c-4 -12 -5 -24 -2 -27 3 -2 8 5 12 17 4 12 5 24 2 27 -3
2 -8 -5 -12 -17z"/>
<path d="M5781 3963 c-1 -6 -4 -20 -7 -30 -5 -17 -5 -17 6 0 6 10 9 23 6 30
-3 9 -5 9 -5 0z"/>
<path d="M6766 3905 c-9 -26 -7 -32 5 -12 6 10 9 21 6 23 -2 3 -7 -2 -11 -11z"/>
<path d="M5731 3804 c0 -11 3 -14 6 -6 3 7 2 16 -1 19 -3 4 -6 -2 -5 -13z"/>
<path d="M6736 3804 c-4 -9 -4 -19 -1 -22 2 -3 7 3 11 12 4 9 4 19 1 22 -2 3
-7 -3 -11 -12z"/>
<path d="M5449 3743 c-13 -16 -12 -17 4 -4 9 7 17 15 17 17 0 8 -8 3 -21 -13z"/>
<path d="M6705 3708 c-10 -29 -20 -59 -23 -67 -3 -9 -1 -12 6 -7 12 7 46 115
39 123 -3 2 -13 -20 -22 -49z"/>
<path d="M5696 3694 c-4 -14 -5 -28 -3 -31 3 -2 8 8 11 23 4 14 5 28 3 31 -3
2 -8 -8 -11 -23z"/>
<path d="M3655 3669 c-4 -6 -5 -12 -2 -15 2 -3 7 2 10 11 7 17 1 20 -8 4z"/>
<path d="M5681 3643 c-1 -6 -4 -20 -7 -30 -5 -17 -5 -17 6 0 6 10 9 23 6 30
-3 9 -5 9 -5 0z"/>
<path d="M5271 3494 c0 -11 3 -14 6 -6 3 7 2 16 -1 19 -3 4 -6 -2 -5 -13z"/>
<path d="M4523 3493 c9 -2 25 -2 35 0 9 3 1 5 -18 5 -19 0 -27 -2 -17 -5z"/>
<path d="M4057 3263 c-4 -3 -7 -11 -7 -17 0 -6 5 -5 12 2 6 6 9 14 7 17 -3 3
-9 2 -12 -2z"/>
<path d="M3367 3209 c-15 -27 -25 -49 -22 -49 6 0 58 90 54 95 -2 2 -16 -19
-32 -46z"/>
<path d="M3987 3158 c-27 -44 -47 -81 -45 -82 1 -2 26 32 55 75 29 43 49 80
45 83 -4 2 -29 -32 -55 -76z"/>
<path d="M3070 2766 c0 -9 7 -12 20 -9 11 3 20 9 20 14 0 5 -9 9 -20 9 -11 0
-20 -6 -20 -14z"/>
<path d="M4508 2713 c7 -3 16 -2 19 1 4 3 -2 6 -13 5 -11 0 -14 -3 -6 -6z"/>
<path d="M3570 2700 c0 -6 11 -8 28 -4 39 10 40 14 4 14 -18 0 -32 -5 -32 -10z"/>
<path d="M3388 2693 c12 -2 20 -9 17 -14 -4 -5 4 -9 17 -9 13 0 29 -5 35 -11
7 -7 22 -7 51 0 22 6 47 8 56 5 9 -4 16 -1 16 6 0 9 -15 11 -54 7 -36 -3 -56
-2 -59 6 -2 6 -25 11 -53 13 -27 1 -39 0 -26 -3z"/>
<path d="M4650 2670 c8 -5 47 -9 85 -9 l70 2 -50 7 c-75 12 -123 12 -105 0z"/>
<path d="M5013 2643 c9 -2 25 -2 35 0 9 3 1 5 -18 5 -19 0 -27 -2 -17 -5z"/>
</g>
</svg>
