<?xml version="1.0" standalone="no"?>
<!DOCTYPE svg PUBLIC "-//W3C//DTD SVG 20010904//EN"
 "http://www.w3.org/TR/2001/REC-SVG-20010904/DTD/svg10.dtd">
<svg version="1.0" xmlns="http://www.w3.org/2000/svg"
 width="1024.000000pt" height="1024.000000pt" viewBox="0 0 1024.000000 1024.000000"
 preserveAspectRatio="xMidYMid meet">

<g transform="translate(0.000000,1024.000000) scale(0.100000,-0.100000)"
fill="#000000" stroke="none">
<path d="M4968 7693 c7 -3 16 -2 19 1 4 3 -2 6 -13 5 -11 0 -14 -3 -6 -6z"/>
<path d="M7073 7693 c15 -2 39 -2 55 0 15 2 2 4 -28 4 -30 0 -43 -2 -27 -4z"/>
<path d="M7060 7653 c-30 -14 -50 -27 -44 -30 7 -2 28 5 48 17 20 11 43 20 51
20 7 0 17 5 20 10 10 16 -17 10 -75 -17z"/>
<path d="M5027 7640 c3 -11 7 -20 9 -20 2 0 4 9 4 20 0 11 -4 20 -9 20 -5 0
-7 -9 -4 -20z"/>
<path d="M6970 7600 c-14 -11 -20 -20 -15 -19 13 0 50 28 44 33 -2 3 -15 -4
-29 -14z"/>
<path d="M6862 7499 c-52 -64 -108 -157 -99 -165 3 -3 11 7 19 23 26 51 43 76
71 106 15 17 27 34 27 40 0 5 10 18 22 28 11 11 19 22 16 25 -3 3 -29 -22 -56
-57z"/>
<path d="M5088 7463 c5 -21 7 -23 10 -9 2 10 0 22 -6 28 -6 6 -7 0 -4 -19z"/>
<path d="M5111 7394 c0 -11 3 -14 6 -6 3 7 2 16 -1 19 -3 4 -6 -2 -5 -13z"/>
<path d="M6747 7307 c-11 -29 -9 -43 4 -30 6 6 9 19 7 29 -3 18 -4 18 -11 1z"/>
<path d="M6726 7222 c-4 -24 -6 -46 -2 -49 8 -8 18 42 14 68 -3 18 -6 13 -12
-19z"/>
<path d="M6710 6190 l0 -971 -42 -19 c-51 -23 -37 -27 16 -5 l36 15 0 975 c0
536 -2 975 -5 975 -3 0 -5 -437 -5 -970z"/>
<path d="M5251 6964 c0 -11 3 -14 6 -6 3 7 2 16 -1 19 -3 4 -6 -2 -5 -13z"/>
<path d="M5267 6909 c4 -13 8 -18 11 -10 2 7 -1 18 -6 23 -8 8 -9 4 -5 -13z"/>
<path d="M5331 6714 c0 -11 3 -14 6 -6 3 7 2 16 -1 19 -3 4 -6 -2 -5 -13z"/>
<path d="M5347 6659 c4 -13 8 -18 11 -10 2 7 -1 18 -6 23 -8 8 -9 4 -5 -13z"/>
<path d="M4728 6595 c-6 -30 -2 -32 12 -6 6 11 6 22 1 25 -5 3 -11 -5 -13 -19z"/>
<path d="M5387 6540 c3 -11 7 -20 9 -20 2 0 4 9 4 20 0 11 -4 20 -9 20 -5 0
-7 -9 -4 -20z"/>
<path d="M4691 6470 c-13 -47 -27 -91 -29 -99 -4 -9 -1 -12 6 -7 7 4 12 18 12
31 0 13 5 27 10 30 6 3 10 16 10 29 0 12 5 27 11 33 6 6 9 23 7 39 -2 22 -9 9
-27 -56z"/>
<path d="M5400 6493 c0 -5 5 -15 10 -23 8 -12 10 -11 10 8 0 12 -4 22 -10 22
-5 0 -10 -3 -10 -7z"/>
<path d="M5421 6435 c1 -19 18 -51 18 -35 0 8 -4 22 -9 30 -5 8 -9 11 -9 5z"/>
<path d="M4647 6326 c-5 -15 -6 -31 -3 -34 8 -8 18 25 14 45 -3 13 -6 10 -11
-11z"/>
<path d="M5461 6303 c0 -4 4 -17 9 -28 8 -19 9 -19 9 2 1 12 -3 25 -9 28 -5 3
-10 3 -9 -2z"/>
<path d="M4622 6240 c-7 -25 -16 -53 -19 -64 -3 -12 -1 -16 6 -12 6 4 11 17
11 30 0 12 5 27 11 33 6 6 9 21 7 34 -2 19 -6 14 -16 -21z"/>
<path d="M5487 6217 c4 -20 -2 -25 -39 -37 -29 -9 -37 -15 -24 -18 10 -2 23 1
29 7 6 6 19 11 29 11 12 0 18 8 18 24 0 14 -4 27 -9 30 -4 3 -6 -5 -4 -17z"/>
<path d="M5350 6140 c-40 -17 -42 -19 -17 -19 15 -1 27 4 27 9 0 6 6 10 14 10
8 0 18 5 21 10 8 12 9 13 -45 -10z"/>
<path d="M4591 6143 c0 -6 -4 -20 -7 -30 -5 -14 -4 -15 5 -7 7 7 11 20 8 30
-3 11 -5 14 -6 7z"/>
<path d="M5250 6100 c-31 -13 -38 -19 -23 -19 12 -1 25 4 28 9 3 6 15 10 26
10 10 0 19 5 19 10 0 6 -1 10 -2 9 -2 0 -23 -9 -48 -19z"/>
<path d="M4571 6073 c0 -6 -4 -20 -7 -30 -5 -14 -4 -15 5 -7 7 7 11 20 8 30
-3 11 -5 14 -6 7z"/>
<path d="M5170 6070 c-8 -5 -10 -10 -5 -10 6 0 17 5 25 10 8 5 11 10 5 10 -5
0 -17 -5 -25 -10z"/>
<path d="M5120 6050 c-13 -8 -13 -10 2 -10 9 0 20 5 23 10 8 13 -5 13 -25 0z"/>
<path d="M5020 6012 c-35 -14 -59 -27 -52 -30 7 -2 18 0 25 5 7 5 31 16 55 23
24 7 45 17 48 22 8 12 -4 9 -76 -20z"/>
<path d="M4551 6003 c0 -6 -4 -20 -7 -30 -5 -14 -4 -15 5 -7 7 7 11 20 8 30
-3 11 -5 14 -6 7z"/>
<path d="M4527 5926 c-5 -15 -6 -31 -3 -34 8 -8 18 25 14 45 -3 13 -6 10 -11
-11z"/>
<path d="M4511 5873 c0 -6 -4 -20 -7 -30 -5 -14 -4 -15 5 -7 7 7 11 20 8 30
-3 11 -5 14 -6 7z"/>
<path d="M4480 5810 c-9 -6 -10 -10 -3 -10 6 0 15 5 18 10 8 12 4 12 -15 0z"/>
<path d="M4425 5790 c-19 -8 -19 -9 2 -9 12 -1 25 4 28 9 7 12 -2 12 -30 0z"/>
<path d="M4375 5770 c-16 -7 -17 -9 -3 -9 9 -1 20 4 23 9 7 11 7 11 -20 0z"/>
<path d="M4320 5750 c-13 -8 -12 -10 3 -10 9 0 17 5 17 10 0 12 -1 12 -20 0z"/>
<path d="M4270 5730 c-13 -8 -13 -10 2 -10 9 0 20 5 23 10 8 13 -5 13 -25 0z"/>
<path d="M4220 5710 c-13 -8 -13 -10 2 -10 9 0 20 5 23 10 8 13 -5 13 -25 0z"/>
<path d="M4170 5690 c-12 -8 -11 -10 8 -10 12 0 22 5 22 10 0 13 -11 13 -30 0z"/>
<path d="M4120 5670 c-13 -8 -12 -10 3 -10 9 0 17 5 17 10 0 12 -1 12 -20 0z"/>
<path d="M4065 5650 c-19 -8 -19 -9 2 -9 12 -1 25 4 28 9 7 12 -2 12 -30 0z"/>
<path d="M4015 5630 c-16 -7 -17 -9 -3 -9 9 -1 20 4 23 9 7 11 7 11 -20 0z"/>
<path d="M3960 5610 c-13 -8 -12 -10 3 -10 9 0 17 5 17 10 0 12 -1 12 -20 0z"/>
<path d="M3860 5570 c-13 -8 -12 -10 3 -10 9 0 17 5 17 10 0 12 -1 12 -20 0z"/>
<path d="M5481 5553 c0 -5 4 -17 9 -28 8 -18 9 -17 9 8 1 15 -3 27 -9 27 -5 0
-10 -3 -9 -7z"/>
<path d="M5507 5469 c4 -13 8 -18 11 -10 2 7 -1 18 -6 23 -8 8 -9 4 -5 -13z"/>
<path d="M5526 5417 c3 -10 9 -15 12 -12 3 3 0 11 -7 18 -10 9 -11 8 -5 -6z"/>
<path d="M5541 5375 c1 -19 18 -51 18 -35 0 8 -4 22 -9 30 -5 8 -9 11 -9 5z"/>
<path d="M5567 5289 c4 -13 8 -18 11 -10 2 7 -1 18 -6 23 -8 8 -9 4 -5 -13z"/>
<path d="M5587 5229 c4 -13 8 -18 11 -10 2 7 -1 18 -6 23 -8 8 -9 4 -5 -13z"/>
<path d="M6595 5170 c-16 -7 -17 -9 -3 -9 9 -1 20 4 23 9 7 11 7 11 -20 0z"/>
<path d="M5611 5154 c0 -11 3 -14 6 -6 3 7 2 16 -1 19 -3 4 -6 -2 -5 -13z"/>
<path d="M6520 5140 c-25 -10 -38 -19 -29 -19 16 -1 79 27 79 35 0 5 2 6 -50
-16z"/>
<path d="M5627 5099 c4 -13 8 -18 11 -10 2 7 -1 18 -6 23 -8 8 -9 4 -5 -13z"/>
<path d="M4282 5071 c-14 -47 -13 -54 6 -42 9 5 12 23 10 47 l-3 39 -13 -44z"/>
<path d="M6438 5103 c7 -3 16 -2 19 1 4 3 -2 6 -13 5 -11 0 -14 -3 -6 -6z"/>
<path d="M6395 5090 c-16 -7 -17 -9 -3 -9 9 -1 20 4 23 9 7 11 7 11 -20 0z"/>
<path d="M6340 5070 c-13 -8 -12 -10 3 -10 9 0 17 5 17 10 0 12 -1 12 -20 0z"/>
<path d="M6290 5050 c-13 -8 -13 -10 2 -10 9 0 20 5 23 10 8 13 -5 13 -25 0z"/>
<path d="M6240 5030 c-9 -6 -10 -10 -3 -10 6 0 15 5 18 10 8 12 4 12 -15 0z"/>
<path d="M6185 5010 c-16 -7 -17 -9 -3 -9 9 -1 20 4 23 9 7 11 7 11 -20 0z"/>
<path d="M5666 4977 c3 -10 9 -15 12 -12 3 3 0 11 -7 18 -10 9 -11 8 -5 -6z"/>
<path d="M5691 4904 c0 -11 3 -14 6 -6 3 7 2 16 -1 19 -3 4 -6 -2 -5 -13z"/>
<path d="M5707 4838 c8 -44 13 -48 13 -10 0 17 -4 34 -10 37 -6 4 -7 -6 -3
-27z"/>
<path d="M5675 4790 c-19 -8 -19 -9 3 -9 12 -1 22 4 22 9 0 6 -1 10 -2 9 -2 0
-12 -4 -23 -9z"/>
<path d="M5118 4783 c7 -3 16 -2 19 1 4 3 -2 6 -13 5 -11 0 -14 -3 -6 -6z"/>
<path d="M5026 4753 c-39 -15 -64 -29 -58 -31 7 -2 33 6 57 17 25 12 52 21 60
21 8 0 15 5 15 10 0 6 -1 10 -2 9 -2 0 -34 -12 -72 -26z"/>
<path d="M5580 4750 c-13 -8 -12 -10 3 -10 9 0 17 5 17 10 0 12 -1 12 -20 0z"/>
<path d="M5530 4730 c-12 -8 -11 -10 8 -10 12 0 22 5 22 10 0 13 -11 13 -30 0z"/>
<path d="M4920 4710 c-13 -8 -13 -10 2 -10 9 0 20 5 23 10 8 13 -5 13 -25 0z"/>
<path d="M5480 4710 c-13 -8 -12 -10 3 -10 9 0 17 5 17 10 0 12 -1 12 -20 0z"/>
<path d="M4875 4690 c-19 -8 -19 -9 3 -9 12 -1 22 4 22 9 0 6 -1 10 -2 9 -2 0
-12 -4 -23 -9z"/>
<path d="M5425 4690 c-19 -8 -19 -9 2 -9 12 -1 25 4 28 9 7 12 -2 12 -30 0z"/>
<path d="M4820 4670 c-13 -8 -13 -10 2 -10 9 0 20 5 23 10 8 13 -5 13 -25 0z"/>
<path d="M5352 4663 c-24 -8 -41 -17 -39 -19 7 -7 87 20 87 28 0 5 -1 8 -2 7
-2 0 -22 -7 -46 -16z"/>
<path d="M4770 4650 c-12 -8 -11 -10 8 -10 12 0 22 5 22 10 0 13 -11 13 -30 0z"/>
<path d="M4720 4630 c-13 -8 -12 -10 3 -10 9 0 17 5 17 10 0 12 -1 12 -20 0z"/>
<path d="M5270 4630 c-8 -5 -10 -10 -5 -10 6 0 17 5 25 10 8 5 11 10 5 10 -5
0 -17 -5 -25 -10z"/>
<path d="M4670 4610 c-13 -8 -13 -10 2 -10 9 0 20 5 23 10 8 13 -5 13 -25 0z"/>
<path d="M4620 4590 c-13 -8 -12 -10 3 -10 9 0 17 5 17 10 0 12 -1 12 -20 0z"/>
<path d="M6712 4315 c-1 -154 -4 -305 -7 -335 -4 -52 -4 -53 5 -16 6 23 9 160
7 335 l-2 296 -3 -280z"/>
<path d="M4570 4570 c-12 -8 -11 -10 8 -10 12 0 22 5 22 10 0 13 -11 13 -30 0z"/>
<path d="M4520 4550 c-13 -8 -13 -10 2 -10 9 0 20 5 23 10 8 13 -5 13 -25 0z"/>
<path d="M4475 4530 c-16 -7 -17 -9 -3 -9 9 -1 20 4 23 9 7 11 7 11 -20 0z"/>
<path d="M4420 4510 c-13 -8 -13 -10 2 -10 9 0 20 5 23 10 8 13 -5 13 -25 0z"/>
<path d="M4370 4490 c-12 -8 -11 -10 8 -10 12 0 22 5 22 10 0 13 -11 13 -30 0z"/>
<path d="M4320 4470 c-13 -8 -12 -10 3 -10 9 0 17 5 17 10 0 12 -1 12 -20 0z"/>
<path d="M4203 4423 c-46 -20 -83 -42 -83 -49 0 -20 13 -17 30 6 8 11 20 20
27 20 7 0 21 4 31 9 9 5 34 17 55 26 20 9 37 18 37 20 0 9 -14 4 -97 -32z"/>
<path d="M4111 4343 c0 -6 -4 -20 -7 -30 -5 -14 -4 -15 5 -7 7 7 11 20 8 30
-3 11 -5 14 -6 7z"/>
<path d="M4087 4256 c-5 -15 -6 -31 -3 -34 8 -8 18 25 14 45 -3 13 -6 10 -11
-11z"/>
<path d="M4071 4203 c0 -6 -4 -20 -7 -30 -5 -14 -4 -15 5 -7 7 7 11 20 8 30
-3 11 -5 14 -6 7z"/>
<path d="M4050 4134 c0 -5 -7 -31 -15 -59 -9 -27 -12 -45 -7 -40 14 16 36 95
29 102 -4 3 -7 2 -7 -3z"/>
<path d="M4011 3993 c0 -6 -4 -20 -7 -30 -5 -14 -4 -15 5 -7 7 7 11 20 8 30
-3 11 -5 14 -6 7z"/>
<path d="M3991 3923 c0 -6 -4 -20 -7 -30 -5 -14 -4 -15 5 -7 7 7 11 20 8 30
-3 11 -5 14 -6 7z"/>
<path d="M6692 3885 c-1 -16 -5 -41 -8 -55 -5 -22 -4 -23 6 -7 6 9 9 34 7 55
-3 32 -4 33 -5 7z"/>
<path d="M3971 3853 c0 -6 -4 -20 -7 -30 -5 -14 -4 -15 5 -7 7 7 11 20 8 30
-3 11 -5 14 -6 7z"/>
<path d="M3948 3777 c-3 -19 -2 -25 4 -19 6 6 8 18 6 28 -3 14 -5 12 -10 -9z"/>
<path d="M6671 3788 c0 -9 -4 -25 -7 -35 -5 -14 -4 -15 5 -7 7 7 11 22 8 35
-2 13 -5 16 -6 7z"/>
<path d="M3928 3707 c-3 -19 -2 -25 4 -19 6 6 8 18 6 28 -3 14 -5 12 -10 -9z"/>
<path d="M6648 3697 c-3 -19 -2 -25 4 -19 6 6 8 18 6 28 -3 14 -5 12 -10 -9z"/>
<path d="M3908 3637 c-3 -19 -2 -25 4 -19 6 6 8 18 6 28 -3 14 -5 12 -10 -9z"/>
<path d="M6627 3631 c-4 -17 -3 -21 5 -13 5 5 8 16 6 23 -3 8 -7 3 -11 -10z"/>
<path d="M3887 3566 c-5 -15 -6 -31 -3 -34 8 -8 18 25 14 45 -3 13 -6 10 -11
-11z"/>
<path d="M6596 3554 c-9 -20 -15 -39 -12 -41 2 -3 12 12 21 32 10 19 16 38 13
40 -2 3 -12 -12 -22 -31z"/>
<path d="M3867 3500 c-3 -11 -1 -20 4 -20 5 0 9 9 9 20 0 11 -2 20 -4 20 -2 0
-6 -9 -9 -20z"/>
<path d="M6566 3483 c-6 -14 -5 -15 5 -6 7 7 10 15 7 18 -3 3 -9 -2 -12 -12z"/>
<path d="M6530 3420 c-12 -25 -38 -66 -57 -92 -19 -27 -31 -48 -28 -48 11 0
44 40 50 61 4 11 11 19 16 19 5 0 9 5 9 11 0 6 9 24 21 40 11 16 19 35 16 42
-2 6 -14 -8 -27 -33z"/>
<path d="M3847 3426 c-5 -15 -6 -31 -3 -34 8 -8 18 25 14 45 -3 13 -6 10 -11
-11z"/>
<path d="M3827 3356 c-5 -15 -6 -31 -3 -34 8 -8 18 25 14 45 -3 13 -6 10 -11
-11z"/>
<path d="M3798 3253 c-21 -73 -21 -76 -8 -68 6 3 10 16 10 29 0 12 5 27 11 33
6 6 9 23 7 39 -2 24 -6 18 -20 -33z"/>
<path d="M6315 3145 c-126 -129 -121 -138 7 -13 60 60 130 142 116 137 -2 -1
-57 -56 -123 -124z"/>
<path d="M3767 3146 c-5 -15 -6 -31 -3 -34 8 -8 18 25 14 45 -3 13 -6 10 -11
-11z"/>
<path d="M3747 3080 c-3 -11 -1 -20 4 -20 5 0 9 9 9 20 0 11 -2 20 -4 20 -2 0
-6 -9 -9 -20z"/>
<path d="M3709 2993 c-14 -29 -23 -53 -19 -53 10 0 53 86 49 97 -2 5 -16 -15
-30 -44z"/>
<path d="M6115 2974 c-27 -18 -46 -34 -42 -34 4 0 31 16 60 35 28 19 47 35 42
34 -6 0 -32 -16 -60 -35z"/>
<path d="M6045 2930 c-3 -5 -1 -10 4 -10 6 0 11 5 11 10 0 6 -2 10 -4 10 -3 0
-8 -4 -11 -10z"/>
<path d="M3635 2882 c-37 -43 -37 -45 -9 -22 32 26 58 59 52 66 -2 2 -22 -18
-43 -44z"/>
<path d="M4897 2889 c7 -7 15 -10 18 -7 3 3 -2 9 -12 12 -14 6 -15 5 -6 -5z"/>
<path d="M5960 2890 c-13 -8 -12 -10 3 -10 9 0 17 5 17 10 0 12 -1 12 -20 0z"/>
<path d="M5858 2843 c7 -3 16 -2 19 1 4 3 -2 6 -13 5 -11 0 -14 -3 -6 -6z"/>
<path d="M5805 2830 c-16 -7 -17 -9 -3 -9 9 -1 20 4 23 9 7 11 7 11 -20 0z"/>
<path d="M5740 2810 c-21 -7 -21 -8 -5 -9 11 0 27 4 35 9 18 11 5 11 -30 0z"/>
<path d="M3524 2795 c-10 -8 -14 -14 -9 -14 6 0 19 6 29 14 11 8 15 15 10 15
-6 0 -19 -7 -30 -15z"/>
<path d="M5218 2783 c6 -2 18 -2 25 0 6 3 1 5 -13 5 -14 0 -19 -2 -12 -5z"/>
<path d="M5633 2783 c9 -2 23 -2 30 0 6 3 -1 5 -18 5 -16 0 -22 -2 -12 -5z"/>
<path d="M3425 2750 c-38 -16 -62 -29 -52 -29 9 -1 26 4 37 9 11 6 29 15 40
20 11 6 27 10 35 10 8 0 15 5 15 10 0 6 -1 10 -2 9 -2 0 -34 -13 -73 -29z"/>
<path d="M5393 2763 c26 -2 67 -2 90 0 23 2 2 3 -48 3 -49 0 -68 -1 -42 -3z"/>
<path d="M3320 2710 c-13 -8 -13 -10 2 -10 9 0 20 5 23 10 8 13 -5 13 -25 0z"/>
<path d="M3265 2690 c-18 -8 -17 -9 8 -9 15 -1 27 4 27 9 0 12 -8 12 -35 0z"/>
<path d="M3215 2670 c-16 -7 -17 -9 -3 -9 9 -1 20 4 23 9 7 11 7 11 -20 0z"/>
<path d="M3165 2650 c-16 -7 -17 -9 -3 -9 9 -1 20 4 23 9 7 11 7 11 -20 0z"/>
<path d="M3085 2620 c-22 -10 -33 -19 -24 -19 16 -1 79 27 79 35 0 7 -14 3
-55 -16z"/>
<path d="M3010 2590 c-12 -8 -11 -10 8 -10 12 0 22 5 22 10 0 13 -11 13 -30 0z"/>
</g>
</svg>
